<?xml version="1.0" encoding="UTF-8" standalone="no"?>
<!-- Created with Inkscape (http://www.inkscape.org/) -->

<svg
   version="1.1"
   id="svg1"
   width="133.339"
   height="133.339"
   viewBox="0 0 133.339 133.33901"
   xml:space="preserve"
   xmlns="http://www.w3.org/2000/svg"><defs
     id="defs1" /><g
     id="g1"
     transform="translate(-1.6309222,0.88924237)"><g
       id="g90"><circle
         style="display:inline;fill:#ffffff;fill-opacity:1;stroke:#000000;stroke-width:3.05267;stroke-dasharray:none;stroke-opacity:1"
         id="path1"
         cy="65.780258"
         cx="68.300423"
         r="65.143166" /><path
         d="m 75.501625,68.030477 q 10.200282,0 15.4504,-3.450014 5.324998,-3.450014 7.049808,-8.400183 1.79929,-4.950569 2.324297,-16.500424 0.52541,-12.82534 5.70024,-19.050188 5.25012,-6.300139 17.1752,-6.300139 v 2.849716 q -4.27457,0.300353 -5.85,3.375538 -1.49975,2.999892 -1.49975,12.82534 0,14.400378 -3.07478,22.27555 -2.9999,7.800283 -12.15015,12.675161 -9.150259,4.874878 -25.12567,5.250123 v 23.775289 q 0,8.775004 0.974327,11.400064 1.050834,2.55018 4.27498,4.12481 3.300246,1.57544 10.125396,1.57544 v 2.77483 H 45.725737 v -2.77483 q 6.674974,-0.0761 9.900335,-1.42487 3.300245,-1.42566 4.350268,-4.05073 1.1241,-2.69993 1.1241,-11.625124 V 73.580543 Q 44.975258,73.205712 36.050061,68.405321 27.124864,63.605331 23.899908,55.879924 20.750244,48.07964 20.750244,33.304831 q 0,-9.450612 -1.426073,-12.525796 -1.426072,-3.15007 -5.924899,-3.600194 v -2.849717 q 7.575225,0.149772 12.225038,2.399995 4.650219,2.249819 7.425049,7.95006 2.849715,5.700241 3.224956,15.000273 0.52501,11.475371 2.174931,16.425137 1.725617,4.950167 7.1251,8.47507 5.399887,3.450014 15.525284,3.450014 V 35.329182 q 0,-8.77502 -1.050833,-11.325192 Q 59.07447,21.378932 55.848705,19.878784 52.62375,18.378636 45.723308,18.30375 v -2.775235 h 45.150186 v 2.775235 q -6.900036,0.07611 -10.125396,1.57463 -3.224956,1.425667 -4.274575,4.050724 -0.974732,2.625058 -0.974732,11.400078 z"
         id="path1-7"
         style="display:inline;stroke-width:0.404789"
         transform="matrix(0.93032981,0,0,0.93032981,4.758505,13.194641)" /><g
         id="g88"
         transform="matrix(0.93032981,0,0,0.93032981,6.6396042,2.4074613)"><path
           d="m 65.365262,122.15441 c -0.252625,-0.29274 -0.379991,-1.1793 -0.412279,-2.87014 l -0.04637,-2.44639 -1.050645,-0.45292 c -2.334668,-1.0069 -3.304833,-2.55579 -3.358223,-5.36055 -0.02816,-1.47337 0.0758,-1.93853 0.618042,-2.77014 0.697217,-1.06915 0.697743,-1.06626 -0.542772,-2.37633 -1.717668,-1.81402 -2.205745,-6.294787 -0.849062,-7.795232 0.284147,-0.314098 0.514377,-0.689671 0.511778,-0.834475 -0.0022,-0.144816 -0.557885,-0.947255 -1.233485,-1.783298 -2.09766,-2.595893 -2.359675,-3.250402 -2.42322,-6.055946 -0.0513,-2.259399 0.0069,-2.587559 0.669096,-3.789797 0.398746,-0.724043 1.060286,-1.685884 1.469715,-2.137505 l 0.744365,-0.82093 -0.975649,-1.123831 c -0.536783,-0.618054 -1.289737,-1.764544 -1.673381,-2.547713 -0.617264,-1.260839 -0.705553,-1.766891 -0.77014,-4.418257 -0.06332,-2.596671 0.0034,-3.173312 0.506305,-4.342197 0.318793,-0.741504 0.916259,-1.683286 1.327772,-2.092965 0.725349,-0.721972 0.976944,-1.433259 0.503706,-1.424146 -0.127355,0.0022 -0.889169,-0.618557 -1.693178,-1.380109 -2.229961,-2.112762 -3.4322,-5.816343 -2.579748,-7.946818 l 0.379739,-0.949338 -0.980332,-0.765456 c -0.961838,-0.75087 -1.499401,-1.558531 -2.300282,-3.457458 l -0.401609,-0.951674 -1.311881,0.447189 c -1.257185,0.428436 -1.370228,0.425311 -2.692265,-0.07523 -0.86469,-0.327644 -1.928101,-0.506316 -2.848003,-0.478711 -1.032153,0.03103 -1.84476,-0.129438 -2.736541,-0.540173 -0.697478,-0.321644 -1.789537,-0.605275 -2.426334,-0.630807 -0.775876,-0.03068 -1.644471,-0.332327 -2.631318,-0.912871 -1.051688,-0.618821 -1.790065,-0.864429 -2.580265,-0.858177 -1.250671,0.01031 -3.302749,-0.940224 -4.390388,-2.03306 l -0.690965,-0.694103 1.441847,-0.351597 c 1.756723,-0.428446 6.405737,-2.866506 9.542317,-5.004527 1.272814,-0.867553 3.934337,-2.688348 5.914272,-4.046336 4.417478,-3.029538 4.75111,-3.208989 6.780519,-3.648358 4.698763,-1.017578 8.458081,1.07825 9.138625,5.095151 0.262542,1.548109 -0.147402,2.916769 -1.260299,4.208852 -0.470891,0.54669 -0.854282,1.100394 -0.851673,1.23036 0.0022,0.130229 0.384674,0.544341 0.849577,0.920691 0.683157,0.553191 1.018884,0.652688 1.75022,0.519598 1.371271,-0.249248 1.5778,-0.62118 1.559046,-2.806865 -0.01248,-1.473093 -0.152614,-2.209386 -0.576893,-3.029801 -1.16134,-2.246631 -0.566471,-4.674008 1.410601,-5.756175 2.676887,-1.465283 5.620209,-0.110718 5.998906,2.761021 0.106025,0.80348 -0.02634,1.469187 -0.516208,2.596156 -0.578975,1.331929 -0.644605,1.791359 -0.540687,3.787437 l 0.118503,2.271903 1.224887,0.05542 c 1.126178,0.05106 2.80399,-0.525322 2.795655,-0.960799 -0.0011,-0.09011 -0.285189,-0.521155 -0.630019,-0.958189 -1.537954,-1.948414 -1.727824,-5.154277 -0.424793,-7.176403 1.616865,-2.509425 3.847868,-3.360833 7.172762,-2.737583 3.052459,0.572209 4.340892,1.309018 11.822806,6.761513 1.791107,1.305114 4.796429,3.218366 6.678682,4.25131 3.256922,1.787203 3.488202,1.871839 4.787322,1.750471 1.25536,-0.117461 1.36605,-0.08255 1.37594,0.432867 0.0145,0.764163 -1.60618,2.673511 -2.81987,3.322031 -0.54643,0.291956 -1.452782,0.539646 -2.014062,0.550329 -0.56126,0.01031 -1.68118,0.337273 -2.48858,0.7256 -1.194936,0.574819 -1.686402,0.677694 -2.643296,0.552675 -0.83396,-0.108886 -1.340002,-0.04111 -1.742401,0.23362 -0.644089,0.439908 -2.228918,0.783959 -4.322412,0.93814 -4.308866,0.317489 -5.753826,0.46646 -5.986404,0.616221 -0.142216,0.09172 -0.415165,0.562569 -0.606592,1.046753 -0.386243,0.976417 -1.422827,2.179685 -2.502395,2.904769 -0.649814,0.436268 -0.704773,0.609982 -0.675863,2.130224 0.04431,2.326849 -0.770929,4.132278 -2.900614,6.423965 l -1.697082,1.826006 1.09831,1.262395 c 1.63483,1.878881 2.165373,3.176438 2.214596,5.41786 0.07706,3.499123 -0.746187,5.487129 -3.161587,7.632444 l -1.214993,1.079303 0.815984,0.840212 c 1.930185,1.987217 2.102078,2.408633 2.139325,5.243354 0.0419,3.203249 -0.363332,4.168995 -2.595377,6.186175 -1.429596,1.292085 -1.91742,2.105206 -1.255091,2.092704 0.151055,-0.0022 0.586784,0.662844 0.968081,1.479354 1.20249,2.574797 0.728222,5.284767 -1.354599,7.743927 -0.546161,0.64488 -0.991783,1.23714 -0.990226,1.3163 0.0011,0.0788 0.303692,0.56987 0.671959,1.09077 0.54173,0.76622 0.675347,1.26499 0.700869,2.61594 0.05599,2.9363 -1.729382,5.32382 -4.013774,5.36733 l -0.754775,0.0143 -0.121893,2.9225 c -0.111749,2.68263 -0.284936,3.31785 -0.912619,3.34519 -0.08954,0.003 -0.327644,-0.1836 -0.528712,-0.41697 z m 0.686031,-6.76124 c -0.07236,-3.80255 -0.204194,-5.84187 -0.37713,-5.83847 -0.174242,0.003 -0.214612,2.06847 -0.116935,5.99057 0.08495,3.40147 0.24768,5.92208 0.377118,5.83873 0.125546,-0.0809 0.178157,-2.77663 0.116947,-5.99083 z m -1.218635,-3.06835 c -0.07499,-2.30079 -0.427142,-2.75711 -1.089986,-1.4132 -0.474795,0.96262 -0.294039,2.70972 0.414639,4.00856 l 0.424004,0.77694 0.159402,-0.65426 c 0.08782,-0.35993 0.129187,-1.583 0.09194,-2.71804 z m 3.020413,2.4154 c 0.35708,-0.69878 0.278685,-3.234 -0.11152,-3.60982 -0.593563,-0.57117 -0.696701,-0.30342 -0.738893,1.91638 -0.03068,1.61088 0.04397,2.21382 0.274254,2.20887 0.173977,-0.003 0.433118,-0.23544 0.576101,-0.51543 z m 2.096882,-1.27437 c 1.621296,-2.73836 0.943338,-4.80372 -2.406814,-7.33319 l -1.581704,-1.19363 c -0.592256,-0.44667 -1.413186,-1.27856 -1.824185,-1.84842 -0.659706,-0.91442 -0.738102,-1.21654 -0.665958,-2.57166 l 0.08175,-1.535874 -1.095962,-0.664665 c -0.60294,-0.365404 -1.285845,-0.66076 -1.517894,-0.656593 -1.10952,0.0213 -1.608016,3.385052 -0.780044,5.265232 0.794103,1.80335 3.22487,3.8359 5.746281,4.80503 1.31787,0.50657 2.847225,2.10076 3.076677,3.20689 0.189869,0.91574 0.09767,2.23542 -0.245344,3.50694 -0.158097,0.58678 -0.132313,0.617 0.249512,0.29145 0.234145,-0.19951 0.66779,-0.77171 0.963662,-1.27151 z m -7.501185,-0.17893 c -0.240398,-1.74475 -0.0034,-2.89046 0.778474,-3.76687 0.767804,-0.86026 0.651647,-1.40642 -0.348472,-1.63717 -0.582363,-0.1344 -0.820425,-0.0255 -1.3197,0.60344 -0.539645,0.68003 -0.59252,0.96497 -0.464902,2.49823 0.09869,1.18479 0.332338,2.02291 0.740462,2.65605 0.328159,0.50893 0.639922,0.92433 0.693048,0.92329 0.05335,-0.001 0.01774,-0.57558 -0.07888,-1.27697 z m 7.609784,-8.43958 c 1.329342,-1.2452 1.980977,-2.71621 1.948942,-4.40027 -0.04764,-2.496148 -1.626759,-4.590682 -4.938108,-6.548737 -1.911168,-1.130083 -3.759832,-2.697727 -4.250783,-3.604608 -0.605286,-1.11784 -0.52428,-2.858683 0.183619,-3.945531 0.705815,-1.08425 0.725863,-1.054035 -1.656723,-2.4826 -1.604362,-0.961577 -1.71453,-0.91808 -2.758936,1.091017 -1.001422,1.926282 -1.091016,3.903869 -0.283619,6.260404 0.528975,1.543679 0.898547,2.108068 2.258093,3.449649 0.986058,0.972775 2.277626,1.917683 3.282689,2.40134 3.240247,1.558781 4.831065,3.591846 3.931212,5.024056 -0.227104,0.36125 -0.391189,1.18634 -0.377645,1.89816 0.04065,2.13984 0.971733,2.43988 2.661259,0.85712 z m -3.688993,-1.62285 c 0.01512,-2.14818 -0.253415,-3.05611 -0.900116,-3.04387 -0.351859,0.007 -0.209391,3.49941 0.157318,3.85256 0.551886,0.53132 0.734726,0.33208 0.742798,-0.80869 z m -1.70907,-2.44222 c -0.111977,-0.43209 -0.126828,-0.43184 -0.30732,0.006 -0.104422,0.25289 -0.09664,0.66283 0.01718,0.91157 0.197163,0.43024 0.212001,0.42999 0.307332,-0.006 0.05519,-0.25159 0.04739,-0.66179 -0.01718,-0.91131 z m 6.678171,-6.37919 c 1.807778,-1.147004 2.888902,-3.229563 3.0061,-5.790553 0.07888,-1.720783 0.01031,-2.040092 -0.748785,-3.511628 -0.45943,-0.890211 -1.108729,-1.85622 -1.442888,-2.146355 -0.873805,-0.759205 -4.665936,-3.234258 -5.748366,-3.751771 -0.506053,-0.241955 -1.662962,-0.91104 -2.570886,-1.487154 -1.418409,-0.899852 -1.727297,-1.239472 -2.195064,-2.414357 -0.889181,-2.233351 -0.742282,-3.788754 0.490424,-5.196216 0.704511,-0.804009 0.449274,-1.209785 -1.284538,-2.042967 l -1.493404,-0.71779 -0.893864,1.058979 c -1.388193,1.644998 -1.839287,3.008963 -1.79319,5.423848 0.03412,1.791371 0.157317,2.324502 0.86469,3.736659 0.96444,1.926018 2.759714,3.72025 4.94019,4.937855 3.301971,1.843442 5.97626,3.681699 6.45757,4.438305 0.277117,0.435465 0.512819,1.236085 0.523502,1.778867 0.02084,1.038142 -0.667791,2.732621 -1.34939,3.320712 -0.678988,0.585753 -0.438064,1.255628 0.736294,2.04609 1.339223,0.90141 1.54108,0.926931 2.501605,0.317476 z m -4.715948,-3.882767 c 0.01282,-3.521778 -0.0034,-3.598354 -0.860775,-4.021064 l -0.788906,-0.389106 0.0521,2.730541 c 0.04717,2.47609 0.106253,2.779507 0.633408,3.252482 0.320087,0.286757 0.666233,0.431297 0.769887,0.320877 0.103391,-0.110146 0.190912,-0.962356 0.194289,-1.89373 z m 1.642913,-0.859478 c 0.0245,-1.42387 -0.505262,-1.248323 -0.566988,0.187782 -0.04294,1.006633 0.01352,1.232192 0.248206,0.990489 0.1672,-0.172157 0.310447,-0.702426 0.318782,-1.178271 z m -3.977834,-1.487942 c -0.384938,-0.370351 -0.659971,0.703216 -0.402914,1.571811 0.201595,0.681069 0.209666,0.675344 0.439382,-0.3089 0.15575,-0.667781 0.143509,-1.089448 -0.03652,-1.262911 z m 8.107514,-8.56668 c 2.143493,-1.637177 3.136317,-3.774156 3.116269,-6.708123 -0.008,-1.189461 -0.168505,-1.995289 -0.53991,-2.709451 -0.5084,-0.977722 -2.774038,-3.479327 -3.144916,-3.472296 -0.09892,0.0011 -0.940751,-0.442496 -1.870545,-0.987626 -0.948032,-0.555791 -3.05428,-1.395738 -4.794859,-1.91221 -3.50668,-1.040489 -5.840043,-2.263303 -7.025084,-3.681712 -0.644354,-0.771444 -0.835266,-1.278538 -0.949076,-2.521916 -0.150025,-1.640052 0.04534,-1.900761 0.812595,-1.084777 1.068358,1.136347 3.678059,0.756092 4.776105,-0.695647 0.577682,-0.763899 0.513082,-1.309809 -0.187259,-1.584315 -1.915862,-0.75088 -4.177081,-0.455009 -5.887182,0.77014 -2.165636,1.551499 -2.743055,4.103895 -1.467366,6.486744 1.202754,2.246896 2.877429,3.446523 8.555996,6.129399 4.780286,2.258609 5.641323,2.791751 6.394025,3.959342 1.033975,1.6041 0.451357,4.131764 -1.343917,5.82911 -0.999865,0.94517 -1.087638,1.352504 -0.41386,1.91924 0.6204,0.521945 1.956234,1.184526 2.397172,1.189209 0.195858,0.0011 0.902979,-0.414364 1.571812,-0.925111 z M 59.101215,55.077669 c -0.328685,-0.316445 0.08416,-0.624557 0.856355,-0.639407 0.421143,-0.008 0.768067,0.102589 0.770679,0.245871 0.0022,0.143246 -0.161224,0.26357 -0.364113,0.267475 -0.203151,0.0034 -0.530532,0.07235 -0.727179,0.15211 -0.1969,0.07991 -0.437813,0.06824 -0.535742,-0.02611 z m 7.864518,19.76208 c 0.123186,-3.399913 0.11824,-3.437673 -0.496677,-3.893714 -0.805312,-0.597215 -1.543163,-0.820942 -1.775489,-0.538088 -0.101562,0.123713 -0.08747,1.780423 0.03126,3.681962 0.208887,3.349625 0.23624,3.467613 0.873553,3.799952 1.2051,0.628712 1.236346,0.558916 1.367353,-3.050112 z m 2.104679,1.228011 c 0.661802,-1.052739 0.692018,-2.068486 0.08931,-2.99647 -0.303428,-0.466976 -0.665444,-0.775613 -0.804786,-0.685756 -0.331033,0.213559 -0.255248,4.300531 0.07969,4.29428 0.139857,-0.0022 0.426098,-0.278158 0.635753,-0.612054 z m -5.108444,-2.038282 c -0.03801,-1.998941 -0.120324,-2.472431 -0.428699,-2.466443 -0.444579,0.008 -0.775875,0.590173 -1.004549,1.764544 -0.114382,0.586532 5.28e-4,1.188418 0.383644,2.011696 0.841254,1.80804 1.102479,1.481702 1.049604,-1.309797 z m 8.77401,-8.667471 c 2.450551,-1.329858 4.509924,-4.40106 4.66541,-6.957361 0.08851,-1.454875 0.03561,-1.636925 -0.751396,-2.590694 -1.305893,-1.582746 -2.684709,-2.25444 -4.579984,-2.23074 -1.727035,0.02141 -3.089179,0.552939 -3.21003,1.252755 -0.04145,0.239092 0.272936,0.809481 0.698521,1.267867 0.674294,0.726391 0.972776,0.844117 2.32425,0.915998 1.378288,0.0735 1.638734,0.0057 2.344034,-0.611276 0.436256,-0.38156 0.865732,-0.695132 0.954284,-0.696953 0.220338,-0.0046 -0.07637,2.094009 -0.387548,2.742518 -0.901158,1.876796 -3.253265,3.905954 -5.388171,4.647971 -1.321258,0.45943 -1.153519,0.947255 0.635755,1.849192 1.608015,0.810774 1.881227,0.852451 2.694875,0.410723 z M 71.86712,54.813571 c -0.738115,-0.177894 -0.534711,-0.591742 0.298471,-0.607623 0.866511,-0.01638 1.271508,0.361764 0.65555,0.611528 -0.22399,0.09091 -0.427405,0.152108 -0.451884,0.135953 -0.02427,-0.01614 -0.25029,-0.07923 -0.502137,-0.139858 z m -4.689912,8.279144 c 0.09011,-0.951158 0.152624,-2.767008 0.306816,-8.927916 0.09354,-3.726766 0.212518,-6.916485 0.264614,-7.088379 0.05232,-0.171631 0.08931,-1.696304 0.08255,-3.387924 l -0.01225,-3.075898 -1.787453,-0.145331 c -0.982932,-0.08027 -1.82288,-0.108886 -1.866376,-0.06377 -0.04328,0.04534 -0.03961,5.012862 0.008,11.039387 0.06846,8.598978 0.158097,11.001613 0.417237,11.162309 0.432089,0.268002 1.814808,0.757132 2.229974,0.788905 a 0.3357185,0.3357185 0 0 0 0.356806,-0.301344 z m 2.888638,-1.01262 c 1.17776,-0.568304 3.00507,-2.185171 2.996208,-2.651115 -0.0034,-0.159642 -0.181535,-0.287008 -0.396137,-0.283104 -0.214875,0.0046 -0.363858,-0.127103 -0.331296,-0.291704 0.03286,-0.1646 -0.348481,-0.401609 -0.847241,-0.526628 -0.498496,-0.12527 -1.327773,-0.584448 -1.842676,-1.020177 l -0.936309,-0.79281 -0.04717,1.644999 c -0.02576,0.904535 0.01225,1.702039 0.08462,1.771836 0.07271,0.0695 0.662054,-0.06538 1.31006,-0.300039 1.603573,-0.580545 1.496793,-0.178144 -0.167211,0.629504 -1.316048,0.639143 -1.686411,1.175927 -1.362408,1.974724 0.192985,0.475323 0.242481,0.470365 1.539511,-0.155486 z m -6.403653,-0.465944 c -0.191164,-0.468029 -3.365254,-2.232824 -3.994243,-2.220847 -0.451871,0.0092 -0.421141,0.09926 0.267477,0.79124 1.623392,1.63119 4.215368,2.62533 3.726766,1.429607 z m -0.177105,-1.707502 c 0.179715,-0.788379 0.194038,-3.194664 0.01901,-3.191287 -0.09172,0.0011 -0.534437,0.292493 -0.983711,0.646185 -0.449537,0.353681 -1.214994,0.812858 -1.701513,1.020178 l -0.884224,0.376865 1.557225,0.767541 c 1.921587,0.946991 1.866376,0.936319 1.993215,0.380518 z m 15.634221,-5.697323 c 0.602677,-0.653204 1.28454,-1.488457 1.515547,-1.855957 0.413596,-0.658151 0.400578,-0.68784 -0.870416,-2.007541 -0.709455,-0.736809 -1.381151,-1.376983 -1.492373,-1.422564 -0.111176,-0.04557 -0.723528,0.393536 -1.360588,0.976165 -1.723645,1.576494 -2.791224,2.030198 -4.902944,2.083852 -1.002465,0.02553 -2.116667,-0.0069 -2.476083,-0.07167 -0.597467,-0.107513 -0.651911,-0.03961 -0.636019,0.793588 0.01901,1.004297 -0.01454,0.99674 2.066666,0.463597 1.645514,-0.421404 3.900996,0.162779 5.333991,1.381678 0.542509,0.461525 1.152743,0.840727 1.35642,0.842822 0.203667,0.0022 0.863386,-0.530795 1.465799,-1.184011 z m -23.103895,0.462819 c 0.161486,-0.202362 0.89699,-0.641227 1.634578,-0.975112 1.100142,-0.498243 1.634327,-0.58549 2.976675,-0.48574 0.899853,0.06664 1.857778,0.234661 2.12917,0.373224 0.615958,0.314878 0.819108,0.113581 0.801923,-0.794366 l -0.01352,-0.710774 -2.148177,0.04763 c -1.645512,0.03675 -2.431292,-0.07557 -3.358486,-0.479741 -1.124622,-0.490172 -2.885775,-2.085684 -3.577267,-3.241025 -0.275297,-0.459693 -0.383633,-0.399009 -1.482217,0.826403 -0.6519,0.72717 -1.182179,1.47362 -1.178791,1.658531 0.01385,0.72275 1.121496,2.367483 2.183602,3.242066 1.215521,1.000909 1.585356,1.099101 2.032546,0.538868 z m 28.98171,-3.473339 c 0.619864,-0.251595 0.491719,-0.534699 -0.511273,-1.128525 -0.501621,-0.296914 -1.468146,-1.343139 -2.148177,-2.324765 -1.103782,-1.593691 -1.32594,-1.783034 -2.075516,-1.768975 -1.826784,0.03492 -1.895288,1.137903 -0.180493,2.902962 1.304071,1.341833 2.29898,1.960139 3.633004,2.258357 0.431825,0.0964 0.804788,0.186996 0.829265,0.201068 0.02427,0.01431 0.228159,-0.04865 0.45319,-0.140122 z m -22.35875,-0.602161 c 0.70451,-0.154971 0.854534,-0.795672 0.808427,-3.449386 l -0.03721,-2.144535 -1.556698,0.192733 -1.556708,0.192732 -1.196755,-1.151963 c -1.4869,-1.431427 -1.56999,-2.182045 -0.357858,-3.236594 1.166287,-1.014716 1.685104,-2.178919 1.655668,-3.716083 -0.02107,-1.114466 -0.154182,-1.420229 -1.021471,-2.346646 -1.320743,-1.41085 -3.027455,-2.001814 -5.467609,-1.893203 -1.595248,0.07088 -2.14505,0.236745 -4.014553,1.211604 -1.191556,0.621168 -2.817536,1.583536 -3.613471,2.138548 l -3.5994,2.509424 c -4.689648,3.268894 -7.126929,4.691207 -11.686086,6.818807 l -1.029554,0.480795 0.745144,0.372435 c 1.363451,0.6816 3.380882,0.677168 5.17824,-0.01145 3.03579,-1.163161 11.113879,-6.458863 11.855885,-7.772313 0.607635,-1.075651 0.943878,-0.807133 0.974082,0.777708 0.05782,3.033957 2.874578,5.643394 6.032776,5.588699 0.465429,-0.008 0.848547,0.102589 0.851145,0.245871 0.0022,0.143246 -0.127618,0.262793 -0.28962,0.265918 -0.472194,0.0092 -0.05519,1.956749 0.611012,2.856075 0.770151,1.039196 2.410455,2.017697 3.775737,2.252884 1.006895,0.173199 1.447055,0.146109 2.938901,-0.18205 z m 28.482677,-0.392232 c -0.0022,-0.139869 -0.33077,-0.444064 -0.729001,-0.675873 -1.880688,-1.094657 -3.188413,-2.02863 -4.183584,-2.988125 -2.177088,-2.099218 -2.086452,-2.053636 -2.983179,-1.500445 -0.434171,0.267487 -0.78578,0.677946 -0.781348,0.911577 0.01282,0.669348 3.031369,3.270713 4.560978,3.930948 1.415018,0.610748 4.125775,0.822762 4.116134,0.321918 z m -41.141527,-0.01718 c 0.505525,-0.268001 1.465283,-0.995171 2.132546,-1.615559 1.976547,-1.837982 2.042967,-2.429988 0.305249,-2.721954 -0.953242,-0.16017 -1.030596,-0.111978 -2.702672,1.677296 -0.946739,1.013148 -2.03984,2.057026 -2.428693,2.319556 -0.817026,0.551886 -0.888907,0.853745 -0.241177,1.01341 0.666235,0.164074 1.88149,-0.114381 2.934747,-0.672749 z m 23.55863,0.05805 c 1.517894,-0.41307 3.072257,-1.837467 3.598357,-3.297277 0.342494,-0.950643 0.359429,-1.248599 0.08908,-1.561919 -0.183619,-0.213044 -0.290398,-0.392231 -0.237272,-0.397968 0.05335,-0.0057 0.993351,-0.05313 2.089062,-0.104994 1.773394,-0.0838 2.114319,-0.186217 3.108198,-0.933708 1.727812,-1.299893 2.621676,-3.509027 2.162247,-5.344411 -0.221907,-0.885781 0.648509,-0.318003 1.060538,0.692019 0.452662,1.109507 2.537819,2.890196 6.862315,5.859576 3.508501,2.409149 7.745731,3.352236 9.540221,2.123434 0.96808,-0.662833 0.8785,-1.071999 -0.30733,-1.402769 -2.549002,-0.711287 -7.466274,-3.583255 -12.902362,-7.536094 -6.997478,-5.088121 -9.418353,-6.020009 -13.363361,-5.143343 -0.830055,0.184397 -2.39952,1.696304 -2.792793,2.690697 -0.720929,1.821586 -0.190396,3.92939 1.381416,5.488435 l 0.991792,0.983722 -0.56804,0.869637 c -1.159784,1.775477 -2.658924,2.356537 -4.653182,1.80361 l -0.720139,-0.199763 0.0498,2.624804 0.05003,2.624803 0.850883,0.228409 c 1.183484,0.317224 2.377902,0.29587 3.71061,-0.06698 z M 95.383558,49.43815 c 0.438328,-0.17762 0.558401,-0.89438 0.148456,-0.88656 -0.503969,0.0092 -5.753312,-3.542896 -7.636623,-5.168097 -2.017431,-1.740831 -2.505257,-1.962736 -2.761283,-1.255354 -0.381549,1.054035 -0.09847,1.734066 1.267616,3.045946 3.186067,3.059754 7.224584,4.977174 8.981834,4.264065 z M 45.522463,49.3801 c 0.640438,-0.341978 2.060403,-1.317879 3.155599,-2.168762 l 1.99112,-1.547068 -0.854523,-0.848536 c -0.46986,-0.466723 -0.947254,-0.846726 -1.060812,-0.844642 -0.113581,0.0022 -0.812606,0.572209 -1.553583,1.266826 -1.717921,1.611141 -3.614238,3.041777 -5.009725,3.780156 -1.312658,0.694353 -1.381425,1.025387 -0.238828,1.148058 1.251187,0.134385 2.265123,-0.08885 3.570752,-0.786032 z m -4.327106,-1.32309 c 1.387414,-0.695395 7.078748,-4.458101 7.074582,-4.677134 -0.0069,-0.38859 -0.921998,-2.507856 -1.081136,-2.504994 -0.11152,0.0022 -1.69004,1.163426 -3.508237,2.580529 -2.873273,2.240116 -6.42345,4.381262 -7.291266,4.397933 -0.617779,0.01167 -0.212003,0.526113 0.583143,0.73942 1.505918,0.403955 2.633402,0.260961 4.222914,-0.535754 z m 27.328379,-9.663683 c 1.817142,-2.26304 0.365404,-5.225128 -2.533905,-5.169917 -1.123317,0.02141 -1.406947,0.142994 -2.16147,0.926679 -0.744101,0.773276 -0.865206,1.079567 -0.844894,2.140367 0.02107,1.113939 0.134396,1.33975 1.126179,2.248201 1.047004,0.958452 1.169676,1.001938 2.416442,0.858176 1.081386,-0.124756 1.434037,-0.301859 1.997648,-1.003506 z m -2.483378,-0.181536 c -0.09218,-0.142982 0.07373,-0.341452 0.368794,-0.441201 0.794367,-0.268781 1.454864,-1.860125 1.037626,-2.500563 -0.668053,-1.025914 -0.04008,-1.471283 0.806091,-0.57143 0.62663,0.666485 0.578451,1.965612 -0.102589,2.75763 -0.628197,0.730559 -1.845011,1.166287 -2.109888,0.755564 z"
           id="path1-4"
           style="display:inline;fill:#000000;fill-opacity:1;stroke-width:0.260449" /><g
           id="g87"
           transform="translate(-3.9745805,-9.8648861)"><path
             d="m 89.623047,51.84939 c 0.382738,0.04531 1.045746,0.540887 2.306641,1.628906 1.883311,1.625201 7.13275,5.177169 7.636719,5.167969 0.409945,-0.0078 0.28989,0.709099 -0.148438,0.886718 -1.75725,0.71311 -5.796355,-1.205871 -8.982422,-4.265625 -1.366086,-1.31188 -1.649127,-1.990886 -1.267578,-3.044921 0.09601,-0.265269 0.225436,-0.400235 0.455078,-0.373047 z"
             style="display:inline;fill:#ffffff;stroke-width:0.260449"
             id="path87" /><path
             d="m 88.023438,54.81228 c 0.383719,0.03609 0.85807,0.510255 2.21875,1.822266 0.995171,0.959495 2.302906,1.893624 4.183594,2.988281 0.398231,0.231809 0.726315,0.535913 0.728515,0.675781 0.0096,0.500844 -2.700216,0.288483 -4.115234,-0.322265 -1.529609,-0.660235 -4.547727,-3.262293 -4.560547,-3.931641 -0.0044,-0.233631 0.347079,-0.642669 0.78125,-0.910156 0.336273,-0.207447 0.53344,-0.34392 0.763672,-0.322266 z"
             style="display:inline;fill:#ffffff;stroke-width:0.260449"
             id="path86" /><path
             d="m 84.296875,56.070093 c 0.749576,-0.01406 0.970437,0.17584 2.074219,1.769531 0.680031,0.981626 1.646817,2.027305 2.148438,2.324219 1.002992,0.593826 1.131582,0.877311 0.511718,1.128906 -0.225031,0.09147 -0.428855,0.154935 -0.453125,0.140625 -0.02448,-0.01407 -0.398253,-0.104772 -0.830078,-0.201172 -1.334024,-0.298218 -2.328741,-0.915979 -3.632812,-2.257812 -1.714795,-1.765059 -1.645144,-2.869377 0.18164,-2.904297 z"
             style="display:inline;fill:#ffffff;stroke-width:0.260449"
             id="path85" /><path
             d="m 82.041016,43.009546 c -0.891059,-0.04359 -1.783279,0.06404 -2.769531,0.283203 -0.830055,0.184397 -2.399696,1.69506 -2.792969,2.689453 -0.720929,1.821586 -0.189,3.929237 1.382812,5.488281 l 0.990235,0.984375 -0.566406,0.869141 c -1.159784,1.775477 -2.660039,2.357615 -4.654297,1.804688 l -0.720703,-0.201172 0.05078,2.625 0.05078,2.625 0.849609,0.228515 c 1.183484,0.317224 2.37823,0.296444 3.710938,-0.06641 1.517894,-0.41307 3.071556,-1.837065 3.597656,-3.296875 0.342494,-0.950643 0.360193,-1.24918 0.08984,-1.5625 -0.183619,-0.213044 -0.291407,-0.3927 -0.238281,-0.398437 0.05335,-0.0057 0.994133,-0.0536 2.089843,-0.105469 1.773394,-0.0838 2.113543,-0.186103 3.107422,-0.933594 1.727812,-1.299893 2.623492,-3.508366 2.164063,-5.34375 -0.221907,-0.885781 0.648518,-0.318616 1.060547,0.691406 0.452662,1.109507 2.536832,2.889995 6.861328,5.859375 3.508501,2.409149 7.746518,3.353802 9.541008,2.125 0.96808,-0.662833 0.87724,-1.073527 -0.30859,-1.404297 -2.549,-0.711286 -7.466252,-3.582317 -12.90234,-7.535156 -5.248103,-3.816087 -7.920566,-5.295021 -10.593744,-5.425777 z"
             style="display:inline;fill:#ffffff;stroke-width:0.260449"
             id="path84" /><path
             d="m 58.824219,43.13064 c -0.282778,-0.0085 -0.577793,-0.0058 -0.882812,0.0078 -1.595248,0.07088 -2.144169,0.236079 -4.013672,1.210938 -1.191556,0.621168 -2.817347,1.58366 -3.613282,2.138672 l -3.599609,2.509765 c -4.689648,3.268894 -7.12639,4.69076 -11.685547,6.81836 L 34,56.296643 34.744141,56.66969 c 1.363451,0.6816 3.380376,0.6769 5.177734,-0.01172 3.03579,-1.163161 11.115416,-6.458034 11.857422,-7.771484 0.607635,-1.075651 0.942453,-0.807497 0.972656,0.777344 0.05782,3.033957 2.875006,5.642585 6.033204,5.58789 0.465429,-0.008 0.848964,0.102812 0.851562,0.246094 0.0022,0.143246 -0.12706,0.2625 -0.289062,0.265625 -0.472194,0.0092 -0.05683,1.956143 0.609375,2.855469 0.770151,1.039196 2.412061,2.018719 3.777343,2.253906 1.006895,0.173199 1.445654,0.146519 2.9375,-0.18164 0.70451,-0.154971 0.854701,-0.795505 0.808594,-3.449219 l -0.03711,-2.144531 -1.556641,0.191406 -1.556641,0.193359 -1.197265,-1.152344 c -1.4869,-1.431427 -1.569554,-2.181779 -0.357422,-3.236328 1.166287,-1.014716 1.685686,-2.179632 1.65625,-3.716797 -0.02107,-1.114466 -0.154195,-1.419286 -1.021484,-2.345703 -1.155651,-1.234493 -2.606493,-1.840748 -4.585938,-1.90039 z"
             style="display:inline;fill:#ffffff;stroke-width:0.260449"
             id="path83" /><path
             d="m 51.222657,50.96853 c 0.159138,-0.0029 1.075131,2.11727 1.082031,2.50586 0.0042,0.219033 -5.688758,3.980386 -7.076172,4.675781 -1.589512,0.796715 -2.716738,0.941064 -4.222656,0.537109 -0.795146,-0.213307 -1.199811,-0.728564 -0.582032,-0.740234 0.867816,-0.01667 4.417743,-2.158322 7.291016,-4.398438 1.818197,-1.417102 3.396293,-2.577878 3.507813,-2.580078 z m 1.564453,3.095703 c 0.113558,-0.0021 0.59264,0.378981 1.0625,0.845704 l 0.853515,0.847656 -1.990234,1.546875 c -1.095196,0.850883 -2.515812,1.827944 -3.15625,2.169922 -1.305629,0.697182 -2.319125,0.919541 -3.570313,0.785156 -1.142597,-0.122671 -1.074376,-0.454085 0.238282,-1.148438 1.395487,-0.738379 3.291844,-2.168155 5.009765,-3.779296 0.740977,-0.694617 1.439154,-1.265378 1.552735,-1.267579 z"
             style="display:inline;fill:#ffffff;stroke-width:0.260449"
             id="path82" /><path
             d="m 55.861328,55.886499 c 0.167428,-0.01 0.351534,0.0166 0.589844,0.05664 1.737718,0.291966 1.67186,0.884674 -0.304687,2.722656 -0.667263,0.620388 -1.627288,1.347233 -2.132813,1.615234 -1.053257,0.558368 -2.269312,0.837902 -2.935547,0.673828 -0.64773,-0.159665 -0.574838,-0.461785 0.242188,-1.013671 0.388853,-0.26253 1.480995,-1.307165 2.427734,-2.320313 1.254057,-1.341955 1.610998,-1.70452 2.113281,-1.734374 z m 2.332032,2.349609 c 0.117303,-0.008 0.197545,0.09129 0.300781,0.263672 0.691492,1.155341 2.453503,2.752016 3.578125,3.242188 0.927194,0.404171 1.71191,0.515265 3.357422,0.478515 l 2.148437,-0.04687 0.01367,0.710938 c 0.01718,0.907947 -0.186776,1.1098 -0.802734,0.794922 -0.271392,-0.138563 -1.229053,-0.30836 -2.128906,-0.375 -1.342348,-0.09975 -1.876421,-0.01192 -2.976563,0.486328 -0.737588,0.333885 -1.47328,0.772247 -1.634766,0.974609 -0.447189,0.560233 -0.815728,0.461847 -2.03125,-0.539062 -1.062106,-0.874583 -2.169743,-2.517485 -2.183593,-3.240235 -0.0034,-0.18491 0.525834,-0.932986 1.177734,-1.660156 0.686615,-0.765882 0.986135,-1.076592 1.181641,-1.089844 z"
             style="display:inline;fill:#ffffff;stroke-width:0.260449"
             id="path81" /><path
             d="m 82.306641,59.017358 c 0.111222,0.04558 0.782732,0.685066 1.492187,1.421875 1.270995,1.319701 1.28469,1.349662 0.871094,2.007813 -0.231007,0.3675 -0.912948,1.202265 -1.515625,1.855469 -0.602413,0.653216 -1.26313,1.187747 -1.466797,1.185547 -0.203677,-0.0021 -0.812959,-0.382225 -1.355468,-0.84375 -1.432995,-1.218899 -3.688471,-1.802264 -5.333985,-1.38086 -2.081206,0.533143 -2.049349,0.539453 -2.068359,-0.464844 -0.01589,-0.833198 0.03925,-0.900481 0.636719,-0.792968 0.359416,0.06477 1.474097,0.09779 2.476562,0.07227 2.11172,-0.05365 3.178699,-0.50749 4.902344,-2.083984 0.63706,-0.582629 1.250152,-1.022132 1.361328,-0.976563 z"
             style="display:inline;fill:#ffffff;stroke-width:0.260449"
             id="path80" /><path
             d="m 76.103516,63.677515 c 1.895275,-0.0237 3.274185,0.647722 4.580078,2.230468 0.787006,0.953769 0.840463,1.134969 0.751953,2.589844 -0.155486,2.556301 -2.215464,5.629127 -4.666015,6.958985 -0.813648,0.441728 -1.085345,0.398664 -2.69336,-0.41211 -1.789274,-0.901937 -1.957977,-1.388226 -0.636719,-1.847656 2.134906,-0.742017 4.487514,-2.771642 5.388672,-4.648438 0.311178,-0.648509 0.607057,-2.746787 0.386719,-2.742187 -0.08855,0.0018 -0.516869,0.313752 -0.953125,0.695312 -0.7053,0.616976 -0.967415,0.684829 -2.345703,0.611329 -1.351474,-0.07188 -1.649925,-0.189625 -2.324219,-0.916016 -0.425585,-0.458386 -0.738715,-1.028486 -0.697265,-1.267578 0.120851,-0.699816 1.481949,-1.230543 3.208984,-1.251953 z"
             style="display:inline;fill:#ffffff;stroke-width:0.260449"
             id="path79" /><path
             d="m 72.742188,66.609155 0.9375,0.792969 c 0.514903,0.435729 1.343301,0.894261 1.841797,1.019531 0.49876,0.125019 0.880516,0.362744 0.847656,0.527344 -0.03256,0.164601 0.115203,0.295616 0.330078,0.291016 0.214602,-0.0039 0.393084,0.123561 0.396484,0.283203 0.0089,0.465944 -1.818333,2.082087 -2.996093,2.65039 -1.29703,0.625852 -1.346078,0.631574 -1.539063,0.15625 -0.324003,-0.798797 0.04528,-1.335466 1.361328,-1.974609 1.664004,-0.807648 1.771542,-1.211404 0.167969,-0.630859 -0.648006,0.234659 -1.237837,0.370281 -1.310547,0.300781 -0.07237,-0.0698 -0.109744,-0.866949 -0.08398,-1.771484 z"
             style="display:inline;fill:#ffffff;stroke-width:0.260449"
             id="path78" /><path
             d="m 70.023438,43.31814 c -1.123317,0.02141 -1.405633,0.142096 -2.160156,0.925781 -0.744101,0.773276 -0.866015,1.079825 -0.845704,2.140625 0.02107,1.113939 0.135171,1.339596 1.126954,2.248047 1.047004,0.958452 1.169249,1.001184 2.416015,0.857422 1.081386,-0.124756 1.434436,-0.300306 1.998047,-1.001953 1.817142,-2.26304 0.364153,-5.225133 -2.535156,-5.169922 z m 1.460937,0.990234 c 0.199108,-5.74e-4 0.485421,0.14693 0.802735,0.484375 0.62663,0.666485 0.577524,1.965795 -0.103516,2.757813 -0.628197,0.730559 -1.844498,1.166582 -2.109375,0.755859 -0.09218,-0.142982 0.07408,-0.341657 0.369141,-0.441406 0.794367,-0.268781 1.454347,-1.861515 1.037109,-2.501953 -0.417533,-0.641197 -0.327939,-1.053731 0.0039,-1.054688 z m -2.705078,6.173828 c 0.338291,0.01155 0.795644,0.03799 1.28711,0.07813 l 1.787109,0.146485 0.01172,3.076171 c 0.0068,1.69162 -0.02971,3.215088 -0.08203,3.386719 -0.05209,0.171894 -0.172084,3.363078 -0.265625,7.089844 -0.154191,6.160908 -0.21653,7.976576 -0.30664,8.927734 a 0.3357185,0.3357185 0 0 1 -0.357422,0.300782 c -0.415166,-0.03177 -1.796427,-0.521061 -2.228516,-0.789063 -0.25914,-0.160696 -0.349508,-2.563131 -0.417968,-11.162109 -0.04761,-6.026525 -0.05109,-10.993723 -0.0078,-11.039063 0.02175,-0.02256 0.241788,-0.02717 0.580078,-0.01563 z"
             style="display:inline;fill:#ffffff;stroke-width:0.260449"
             id="path77" /><path
             d="m 71.416016,120.97049 c 0.0938,0.0205 0.210984,0.11111 0.359375,0.2539 0.390205,0.37582 0.468408,2.9106 0.111328,3.60938 -0.142983,0.27999 -0.402195,0.51262 -0.576172,0.51562 -0.230284,0.005 -0.304117,-0.5981 -0.273437,-2.20898 0.03164,-1.66485 0.09751,-2.23153 0.378906,-2.16992 z"
             style="display:inline;fill:#ffffff;stroke-width:0.260449"
             id="path76" /><path
             d="m 69.708985,119.64822 c 0.172936,-0.003 0.304593,2.0373 0.376953,5.83985 0.06121,3.2142 0.0084,5.90933 -0.117188,5.99023 -0.129438,0.0833 -0.292003,-2.43837 -0.376953,-5.83984 -0.09768,-3.9221 -0.05705,-5.98724 0.117188,-5.99024 z"
             style="display:inline;fill:#ffffff;stroke-width:0.260449"
             id="path75" /><path
             d="m 68.392578,120.25564 c 0.271588,0.008 0.427741,0.72607 0.47461,2.16407 0.03725,1.13504 -0.004,2.35686 -0.0918,2.71679 l -0.160156,0.6543 -0.423828,-0.77734 c -0.708678,-1.29884 -0.888858,-3.0452 -0.414063,-4.00782 0.248567,-0.50396 0.452282,-0.75468 0.615234,-0.75 z"
             style="display:inline;fill:#ffffff;stroke-width:0.260449"
             id="path74" /><path
             d="m 66.53125,117.92557 c -0.336042,0.003 -0.563043,0.18259 -0.9375,0.65429 -0.539645,0.68004 -0.592461,0.96479 -0.464843,2.49805 0.09869,1.18479 0.33211,2.02311 0.740234,2.65625 0.328159,0.50893 0.640233,0.92487 0.693359,0.92383 0.05335,-0.001 0.01654,-0.57596 -0.08008,-1.27735 -0.240398,-1.74475 -0.0026,-2.88921 0.779297,-3.76562 0.767804,-0.86027 0.65051,-1.40792 -0.349609,-1.63867 -0.145591,-0.0336 -0.268845,-0.0519 -0.38086,-0.0508 z"
             style="display:inline;fill:#ffffff;stroke-width:0.260449"
             id="path73" /><path
             d="m 68.566407,110.55252 c -0.04027,7.8e-4 -0.08944,0.11115 -0.179688,0.33008 -0.104422,0.25289 -0.09624,0.66337 0.01758,0.91211 0.197163,0.43024 0.21131,0.42817 0.306641,-0.008 0.05519,-0.25159 0.04895,-0.66063 -0.01563,-0.91015 -0.05599,-0.21605 -0.08863,-0.32501 -0.128906,-0.32422 z"
             style="display:inline;fill:#ffffff;stroke-width:0.260449"
             id="path72" /><path
             d="m 69.503907,110.27517 c -0.351859,0.007 -0.210459,3.49842 0.15625,3.85157 0.551886,0.53132 0.736068,0.33217 0.74414,-0.8086 0.01512,-2.14818 -0.253689,-3.05521 -0.90039,-3.04297 z"
             style="display:inline;fill:#ffffff;stroke-width:0.260449"
             id="path71" /><path
             d="m 64.972657,107.75564 c -1.10952,0.0213 -1.607269,3.38545 -0.779297,5.26563 0.794103,1.80335 3.224682,3.83556 5.746093,4.80469 1.31787,0.50657 2.84672,2.1009 3.076172,3.20703 0.189869,0.91574 0.09887,2.23629 -0.24414,3.50781 -0.158097,0.58678 -0.133778,0.61657 0.248047,0.29102 0.234145,-0.19951 0.668971,-0.77169 0.964843,-1.27149 1.621296,-2.73836 0.943902,-4.80451 -2.40625,-7.33398 l -1.582031,-1.19336 c -0.592256,-0.44667 -1.41322,-1.2778 -1.824219,-1.84766 -0.659706,-0.91442 -0.738159,-1.21714 -0.666015,-2.57227 l 0.08203,-1.53515 -1.097656,-0.66602 c -0.60294,-0.3654 -1.285529,-0.66042 -1.517577,-0.65625 z"
             style="display:inline;fill:#ffffff;stroke-width:0.260449"
             id="path70" /><path
             d="m 67.566407,81.657983 c 0.308375,-0.006 0.391677,0.465903 0.429687,2.464844 0.05288,2.791499 -0.207574,3.118587 -1.048828,1.310547 -0.383116,-0.823278 -0.499148,-1.425187 -0.384766,-2.011719 0.228674,-1.174371 0.559328,-1.755672 1.003907,-1.763672 z"
             style="display:inline;fill:#ffffff;stroke-width:0.260449"
             id="path69" /><path
             d="m 72.388672,82.480249 c 0.139342,-0.08986 0.50126,0.218571 0.804688,0.685547 0.602708,0.927984 0.573911,1.943355 -0.08789,2.996094 h -0.002 c -0.209655,0.333896 -0.494909,0.609128 -0.634766,0.611328 -0.334938,0.0063 -0.411111,-4.07941 -0.08008,-4.292969 z"
             style="display:inline;fill:#ffffff;stroke-width:0.260449"
             id="path68" /><path
             d="m 68.990235,80.382593 c 0.343282,-0.02841 0.909688,0.210292 1.513672,0.658203 0.614917,0.456041 0.619279,0.492665 0.496093,3.892578 -0.131008,3.609028 -0.162087,3.679493 -1.367187,3.050781 -0.637313,-0.332339 -0.66416,-0.451156 -0.873047,-3.800781 -0.11873,-1.901539 -0.132812,-3.557928 -0.03125,-3.681641 0.05808,-0.07071 0.147291,-0.10967 0.261719,-0.11914 z"
             style="display:inline;fill:#ffffff;stroke-width:0.260449"
             id="path67" /><path
             d="m 64.369141,63.933374 c 0.768305,-0.0066 1.535458,0.126623 2.253906,0.408203 0.700341,0.274506 0.765182,0.820086 0.1875,1.583985 -1.098046,1.451739 -3.708985,1.833612 -4.777344,0.697265 -0.767254,-0.815984 -0.962525,-0.556067 -0.8125,1.083985 0.11381,1.243378 0.304865,1.75004 0.949219,2.521484 1.185041,1.418409 3.518711,2.641152 7.025391,3.681641 1.740579,0.516472 3.84689,1.356318 4.794922,1.912109 0.929794,0.54513 1.772173,0.989381 1.871093,0.988281 0.370878,-0.007 2.636132,2.494934 3.144532,3.472656 0.371405,0.714162 0.531062,1.519524 0.539062,2.708985 0.02005,2.933967 -0.971741,5.071807 -3.115234,6.708984 -0.668833,0.510747 -1.376408,0.924928 -1.572266,0.923828 -0.440938,-0.0047 -1.776084,-0.667508 -2.396484,-1.189453 -0.673778,-0.566736 -0.585803,-0.972798 0.414062,-1.917969 1.795274,-1.697345 2.377725,-4.225978 1.34375,-5.830078 -0.752702,-1.167591 -1.614245,-1.700375 -6.394531,-3.958984 -5.678567,-2.682876 -7.353887,-3.88201 -8.556641,-6.128906 -1.275689,-2.382849 -0.696886,-4.934829 1.46875,-6.486328 1.068814,-0.765718 2.352305,-1.168648 3.632813,-1.179688 z m 3.169922,2.876953 c 0.175028,-0.0034 0.160184,2.401074 -0.01953,3.189453 -0.126839,0.555801 -0.07255,0.568085 -1.994141,-0.378906 l -1.556641,-0.767578 0.884766,-0.376953 c 0.486519,-0.20732 1.251635,-0.667803 1.701172,-1.021485 0.449274,-0.353691 0.892655,-0.643431 0.984374,-0.644531 z m -3.837891,2.677735 c 0.628989,-0.01198 3.802977,1.752674 3.994141,2.220703 0.488602,1.195723 -2.103171,0.201502 -3.726563,-1.429688 -0.688618,-0.69198 -0.719449,-0.781815 -0.267578,-0.791015 z"
             style="display:inline;fill:#ffffff;stroke-width:0.260449"
             id="path66" /><path
             d="m 63.384766,77.439233 -0.892578,1.058594 c -1.388193,1.644998 -1.839066,3.008943 -1.792969,5.423828 0.03412,1.791371 0.155908,2.324171 0.863281,3.736328 0.96444,1.926018 2.760931,3.719896 4.941407,4.9375 3.301971,1.843442 5.975721,3.680894 6.457031,4.4375 0.277117,0.435465 0.512754,1.236515 0.523437,1.779297 0.02084,1.038142 -0.66801,2.73222 -1.349609,3.32031 -0.678988,0.58576 -0.43803,1.25642 0.736328,2.04688 1.339223,0.90141 1.541428,0.92781 2.501953,0.31836 1.807778,-1.14701 2.888662,-3.23003 3.00586,-5.791018 0.07888,-1.720783 0.01105,-2.040183 -0.748047,-3.511719 -0.45943,-0.890211 -1.109201,-1.856349 -1.44336,-2.146485 -0.873805,-0.759204 -4.665616,-3.23444 -5.748047,-3.751953 -0.506052,-0.241955 -1.664341,-0.910214 -2.572265,-1.486328 -1.418409,-0.899852 -1.725593,-1.24113 -2.19336,-2.416015 -0.88918,-2.233351 -0.742471,-3.787851 0.490235,-5.195313 0.704511,-0.804009 0.448656,-1.209787 -1.285156,-2.042969 z"
             style="display:inline;fill:#ffffff;stroke-width:0.260449"
             id="path65" /><path
             d="m 64.076172,93.353296 c 0.309456,0.02726 0.701099,0.244877 1.302735,0.605469 2.382586,1.428565 2.364018,1.400125 1.658203,2.484375 -0.707899,1.086848 -0.78888,2.827472 -0.183594,3.94531 0.490951,0.90688 2.338832,2.47344 4.25,3.60352 3.311349,1.95805 4.88986,4.05268 4.9375,6.54883 0.03203,1.68406 -0.619877,3.15519 -1.949219,4.40039 -1.689526,1.58276 -2.619506,1.28242 -2.660156,-0.85742 -0.01354,-0.71182 0.149849,-1.53719 0.376953,-1.89844 0.899853,-1.43221 -0.691394,-3.46466 -3.931641,-5.02344 -1.005063,-0.48366 -2.295192,-1.42762 -3.28125,-2.40039 -1.359546,-1.34158 -1.728837,-1.90749 -2.257812,-3.45117 -0.807397,-2.356538 -0.718219,-4.333486 0.283203,-6.259768 0.652754,-1.255686 0.939319,-1.742702 1.455078,-1.697266 z m 4.931641,2.851562 0.789062,0.388672 c 0.857375,0.42271 0.872195,0.499707 0.859375,4.02149 -0.0034,0.93137 -0.08997,1.78243 -0.193359,1.89257 -0.103654,0.11042 -0.449444,-0.0336 -0.769531,-0.32031 -0.527155,-0.47298 -0.587596,-0.77586 -0.634766,-3.251953 z m -0.824219,1.988282 c 0.04386,0.0044 0.09055,0.02792 0.138672,0.07422 0.180029,0.173463 0.190906,0.593938 0.03516,1.261719 -0.229716,0.984241 -0.235905,0.991611 -0.4375,0.310547 -0.224925,-0.76002 -0.04333,-1.677228 0.263672,-1.646484 z m 3.865234,0.583984 c 0.137094,-0.04542 0.26225,0.266581 0.25,0.978516 -0.0083,0.47585 -0.151159,1.00558 -0.318359,1.17773 -0.234686,0.24171 -0.290987,0.0164 -0.248047,-0.99023 0.03086,-0.718053 0.179313,-1.1206 0.316406,-1.166016 z"
             style="display:inline;fill:#ffffff;stroke-width:0.260449"
             id="path64" /></g></g><g
         id="g89"
         transform="matrix(0.93032981,0,0,0.93032981,4.758505,13.194641)" /></g></g></svg>
